<svg xmlns="http://www.w3.org/2000/svg" xmlns:xlink="http://www.w3.org/1999/xlink" xmlns:inkscape="http://www.inkscape.org/namespaces/inkscape" version="1.1" width="841.8898" height="595.2756" viewBox="0 0 841.8898 595.2756">
<g inkscape:groupmode="layer" inkscape:label="Layer 1">
<path transform="matrix(1,0,0,-1,0,595.2756)" d="M692.2264 297.6378C692.2264 147.8132 570.7695 26.3563 420.9449 26.3563 271.1203 26.3563 149.6633 147.8132 149.6633 297.6378 149.6633 447.4624 271.1203 568.9193 420.9449 568.9193 570.7695 568.9193 692.2264 447.4624 692.2264 297.6378" fill="#ad1927"/>
<path transform="matrix(1,0,0,-1,0,595.2756)" d="M212.5939 374.684 212.9788 375.5254 214.037 375.1886 211.5808 367.4503 210.5229 367.7868 210.6913 368.6953C210.7735 369.114 210.7324 369.4357 210.5717 369.6486 210.4146 369.8654 210.0932 370.0485 209.607 370.2022L197.3228 374.1012 197.2967 374.0151 210.5753 364.2803 210.0818 362.7252 193.5133 362.0971 193.5023 362.0186 204.2461 358.6652C204.882 358.471 205.4013 358.3698 205.8052 358.3551 206.2125 358.3437 206.5714 358.4409 206.8818 358.6428 207.1919 358.8483 207.4836 359.1998 207.7526 359.6896L208.2013 360.4711 209.2595 360.1344 207.1735 353.5625 206.1153 353.8987 206.1601 354.4594C206.2052 354.9645 206.1564 355.3716 206.0107 355.6894 205.865 356.0074 205.6144 356.2764 205.2556 356.4969 204.9004 356.7178 204.3884 356.9343 203.7226 357.1438L193.2744 360.4598C192.8631 360.5907 192.5079 360.6015 192.2085 360.4932 191.9098 360.3813 191.6592 360.1307 191.4534 359.742L191.0313 358.9121 189.9731 359.2485 192.1414 366.0746 204.9191 366.5157 194.6537 373.9961 196.7734 380.6694 197.8311 380.344 197.6666 379.4468C197.6145 379.1364 197.6068 378.8861 197.6519 378.7027 197.6964 378.5199 197.805 378.3702 197.977 378.2546 198.1488 378.1349 198.4144 378.019 198.7696 377.9065L210.8483 374.0746C211.3342 373.9215 211.7004 373.8878 211.951 373.974 212.2016 374.0562 212.4145 374.2954 212.5939 374.684ZM643.945 359.3344C644.6327 358.9421 645.5375 358.901 646.6442 359.2185L646.8687 359.282C647.8929 359.5737 648.5505 360.0485 648.8575 360.7067 649.1563 361.3643 649.1563 362.2243 648.8575 363.2859L648.7302 363.727 648.2738 365.3235 641.8964 363.4991 642.397 361.7456C642.7412 360.5346 643.2571 359.7307 643.945 359.3344ZM638.5022 350.31C637.8814 350.1343 637.2833 350.1009 636.6852 350.2091 636.0871 350.3174 635.5485 350.5941 635.07 351.0428 634.5916 351.4915 634.2401 352.1157 634.0158 352.9157 633.6944 354.0373 633.7692 354.9906 634.2401 355.7792 634.7186 356.5718 635.5636 357.1812 636.7825 357.6073L638.3523 358.1495C639.1752 358.4375 639.8031 358.7102 640.2291 358.9719 640.6625 359.2298 640.9545 359.5774 641.1039 360.0111 641.2609 360.4448 641.2385 361.0205 641.029 361.7422L640.6328 363.1402 634.6814 361.4391C634.1879 361.3008 633.8665 361.1251 633.702 360.9156 633.545 360.7067 633.4926 360.3889 633.5674 359.9663L633.7091 359.0504 632.6405 358.7477 630.4045 366.5608 631.474 366.8635 631.8329 366.0259C632.012 365.6259 632.2215 365.3756 632.4684 365.286 632.7147 365.1925 633.0886 365.2149 633.5748 365.3569L645.7844 368.8413C646.2553 368.9793 646.5844 369.1514 646.7638 369.3645 646.9509 369.5737 647.0031 369.8878 646.9282 370.2991L646.7712 371.2337 647.8404 371.5401 650.2405 363.1365C650.861 360.9533 650.9957 359.1737 650.6442 357.8017 650.3003 356.4261 649.4105 355.5363 647.9898 355.1323 647.1751 354.9008 646.4047 354.9342 645.6719 355.2299 644.9321 355.5286 644.2665 356.0786 643.661 356.8782 643.0552 357.6784 642.547 358.7102 642.1431 359.9773L642.1204 359.97C642.3375 358.8035 642.3001 357.8091 642.0087 356.9868 641.717 356.1644 641.2533 355.4912 640.6254 354.9716 639.9899 354.4483 639.2123 353.9999 638.2851 353.6184L637.1864 353.1436C636.7895 352.9721 636.5356 352.7923 636.4086 352.6129 636.2813 352.4295 636.2589 352.2129 636.3264 351.9587 636.4009 351.697 636.5877 351.5213 636.872 351.4314 637.1561 351.3416 637.5674 351.3719 638.098 351.5213L639.1675 351.8277 639.5187 350.6017ZM629.1187 370.0823 623.7802 384.0338 624.8197 384.4301 625.2608 383.5888C625.4623 383.2189 625.6945 383.002 625.9558 382.9385 626.2254 382.8787 626.584 382.9348 627.0477 383.1103L638.898 387.6452C639.3617 387.8206 639.6758 388.0227 639.8405 388.247 640.0049 388.4751 640.0273 388.7889 639.9227 389.1929L639.6758 390.1124 640.715 390.5087 645.9786 376.744 640.1769 374.527 639.7656 375.5889 641.5449 376.8111C642.1581 377.2375 642.6142 377.6411 642.8982 378.0187 643.1822 378.3963 643.3245 378.8263 643.3322 379.3048 643.3396 379.7872 643.2049 380.3888 642.928 381.1105L642.4872 382.2656 641.6872 384.3516 635.4666 381.9742 636.1693 380.1385C636.3561 379.6449 636.5356 379.2821 636.6926 379.0468 636.8496 378.8113 637.0515 378.6542 637.2984 378.5757 637.5523 378.4972 637.8888 378.4861 638.3302 378.5346L639.2421 378.6355 639.6534 377.5776 634.0983 375.4542 633.6944 376.5161 634.4348 377.043C634.7937 377.3086 635.04 377.5552 635.1673 377.7758 635.3019 377.9966 635.3467 378.2469 635.3096 378.5233 635.2722 378.7999 635.1596 379.1852 634.9654 379.6784L634.2627 381.5141 627.1673 378.7999 627.9523 376.7366 628.3636 375.6523C628.6479 374.9122 628.9764 374.3666 629.358 374.0111 629.7318 373.6522 630.2106 373.4317 630.786 373.3458 631.3618 373.2636 632.1169 373.286 633.0589 373.4167L635.3768 373.7458 635.8028 372.6354ZM633.2309 392.1647 632.7746 393.1257 634.3373 394.4974C634.9878 395.062 635.4366 395.5144 635.6835 395.8546 635.9298 396.1911 636.0423 396.5423 636.0273 396.9011 636.0197 397.2603 635.8703 397.7388 635.586 398.3329L635.2869 398.9537 622.599 392.8674C622.1429 392.6469 621.8512 392.4153 621.7243 392.1687 621.6046 391.9181 621.6199 391.5927 621.7767 391.189L622.2025 390.03 621.2081 389.5515 617.3952 397.4956 618.3896 397.974 619.0251 396.9125C619.242 396.5386 619.4889 396.3254 619.7652 396.2696 620.0419 396.2132 620.4084 396.2957 620.8642 396.5125L633.5376 402.5914 633.2233 403.2567C632.9392 403.8435 632.6552 404.2511 632.3712 404.479 632.0795 404.7069 631.7357 404.8228 631.332 404.8265 630.9204 404.8302 630.3073 404.7593 629.4849 404.6173L627.4287 404.2661 626.9729 405.2154 632.446 407.8397 638.7038 394.789ZM614.2997 403.3837 606.778 416.2436 607.7353 416.8006 608.3033 416.0455C608.5576 415.7127 608.8192 415.5369 609.0959 415.5182 609.3652 415.4995 609.7167 415.6155 610.1351 415.866L621.0663 422.2587C621.4924 422.5054 621.7617 422.7557 621.8884 423.0062 622.008 423.2529 621.9859 423.5709 621.8141 423.9482L621.4252 424.8119 622.3822 425.3729 629.8067 412.6884 624.4532 409.5592 623.8848 410.5389 625.4252 412.0302C625.9635 412.5538 626.345 413.0209 626.5616 413.4399 626.7784 413.8549 626.8533 414.3033 626.7861 414.7781 626.7112 415.2526 626.4797 415.821 626.0907 416.4863L625.4702 417.5521 624.3412 419.4737 618.6141 416.1203 619.6008 414.4303C619.8698 413.9742 620.0943 413.6454 620.2888 413.4399 620.4832 413.2341 620.7075 413.1145 620.9691 413.077 621.2231 413.0399 621.5672 413.081 621.9859 413.2006L622.868 413.4512 623.444 412.4752 618.3224 409.4807 617.754 410.4604 618.3969 411.0996C618.711 411.4213 618.9129 411.7014 619.0027 411.9406 619.0926 412.1799 619.0926 412.4341 619.0104 412.6995 618.9279 412.9651 618.7558 413.3276 618.4945 413.7797L617.4998 415.4698 610.9574 411.6416 612.0717 409.7426 612.6548 408.7446C613.0511 408.0603 613.4624 407.5781 613.8961 407.2864 614.3221 406.9984 614.8304 406.8604 615.4064 406.8677 615.9895 406.8788 616.7299 407.0248 617.6344 407.3091L619.8625 408.0078 620.4609 406.9874ZM604.7371 419.3016 596.1163 431.4776 597.0212 432.1165 597.6567 431.4138C597.9404 431.1037 598.2174 430.9503 598.494 430.958 598.7631 430.9614 599.0995 431.1074 599.5035 431.3914L609.8437 438.715C610.2473 438.999 610.5016 439.272 610.6062 439.53 610.7034 439.7916 610.6513 440.1017 610.4492 440.4645L609.986 441.2942 610.8905 441.9334 619.3916 429.9259 614.3298 426.3409 613.6719 427.2681 615.0849 428.8904C615.5782 429.4587 615.9149 429.9596 616.0941 430.3933 616.2735 430.827 616.3109 431.2791 616.199 431.7466 616.0864 432.2137 615.8103 432.7634 615.3616 433.3915L614.6512 434.4007 613.3578 436.2216 607.9297 432.3784 609.0661 430.7783C609.3726 430.3485 609.6271 430.0381 609.836 429.8511 610.0532 429.6643 610.2848 429.5597 610.5464 429.5483 610.808 429.5333 611.1374 429.6044 611.5482 429.7578L612.4082 430.0866 613.0661 429.1634 608.2211 425.7317 607.5632 426.6584 608.1537 427.354C608.4383 427.7015 608.61 427.9969 608.6846 428.2438 608.7523 428.4904 608.737 428.7447 608.6324 429.0024 608.5278 429.2606 608.3184 429.6044 608.0119 430.0345L606.8826 431.6346 600.6847 427.2491 601.9557 425.4514 602.6287 424.5052C603.0848 423.8586 603.5406 423.4139 603.9969 423.1596 604.4454 422.9093 604.9613 422.8157 605.537 422.8753 606.113 422.9354 606.8455 423.1449 607.7203 423.5074L609.8811 424.3969 610.5688 423.4286ZM607.7129 444.5617 607.4439 444.7749C606.9728 445.1485 606.5019 445.373 606.0229 445.4478 605.5444 445.5187 605.0582 445.4889 604.565 445.358 604.0641 445.227 603.436 444.9954 602.6734 444.67L589.8135 439.1671 588.4903 440.655 594.3368 452.0123 582.7329 447.1336 581.4023 448.6292 589.0808 463.2985C589.3123 463.7469 589.4172 464.1318 589.3948 464.4609 589.3724 464.7864 589.2154 465.1603 588.9387 465.575L588.6397 466.0237 589.4623 466.7564 595.3311 460.1506 594.5088 459.4178 593.8512 459.9862C593.5144 460.2739 593.223 460.4309 592.9688 460.457 592.7145 460.4797 592.4752 460.3898 592.251 460.188 592.0642 460.0196 591.81 459.6534 591.4882 459.0853L587.7275 452.3374C587.2414 451.4513 586.8303 450.7373 586.5015 450.1956L586.5165 450.1766 595.3689 454.0161 596.0341 455.3206C596.266 455.773 596.3706 456.173 596.3556 456.5205 596.3406 456.8683 596.1988 457.2573 595.9295 457.6833L595.6379 458.1505 596.4602 458.8832 602.3296 452.2776 601.5073 451.5449 600.8641 452.1206C600.5353 452.416 600.2436 452.573 600.0043 452.588 599.7654 452.6065 599.5256 452.5129 599.294 452.304 599.0173 452.0571 598.7333 451.6645 598.4419 451.1262L594.8079 444.3712C594.3294 443.4851 593.9257 442.7711 593.5822 442.2291L593.5966 442.2101 601.38 445.7055C602.3891 446.1616 603.1074 446.5803 603.5335 446.9618 603.7203 447.1226 603.8549 447.2943 603.9371 447.4701 604.0193 447.6495 604.0341 447.8851 603.9669 448.1765 603.9071 448.4721 603.7277 448.831 603.4436 449.2531L603.1891 449.6533 604.012 450.3861 608.5426 445.2942ZM577.6115 460.0834C576.9462 459.3433 576.1534 458.8311 575.2341 458.5397 574.3142 458.2477 573.3346 458.2327 572.2954 458.4986 571.2636 458.7636 570.2542 459.3396 569.2674 460.2251 568.3552 461.0517 567.7197 461.9115 567.3759 462.8049 567.0317 463.6945 566.8526 464.5134 566.8302 465.2495L564.9386 464.4198 564.0562 465.2161 568.8711 470.562 569.7383 469.7844C568.8638 467.9977 568.4672 466.3488 568.535 464.8422 568.5945 463.3356 569.1702 462.102 570.2394 461.1336 570.763 460.6628 571.2786 460.3487 571.7871 460.1917 572.3031 460.0346 572.7665 460.0162 573.2002 460.1392 573.6263 460.2591 574.0004 460.491 574.3069 460.8309 574.5986 461.1523 574.8001 461.4851 574.92 461.8253 575.032 462.162 575.0473 462.5994 574.9571 463.1338 574.8676 463.6684 574.6357 464.3376 574.2694 465.1489L573.26 467.3619C572.5346 468.9544 572.2282 470.3151 572.3405 471.4481 572.4524 472.5842 572.8935 473.5715 573.6563 474.4162 574.3216 475.1563 575.0918 475.6572 575.9742 475.9262 576.8563 476.1958 577.7685 476.2069 578.7179 475.9566 579.6675 475.7097 580.5649 475.2014 581.4096 474.4423 582.135 473.7881 582.6509 473.1228 582.9574 472.4538 583.2714 471.7809 583.4435 471.1714 583.4959 470.6254L584.9164 470.988 585.7013 470.2816 581.5743 465.702 580.7818 466.416C582.3816 469.5486 582.2844 471.9229 580.4901 473.5378 579.9966 473.9788 579.5181 474.2629 579.0546 474.3862 578.5835 474.5098 578.1648 474.5058 577.7836 474.3788 577.4097 474.2518 577.0879 474.0386 576.8189 473.7433 576.5349 473.4292 576.3481 473.089 576.2659 472.7302 576.1834 472.3713 576.1984 471.9489 576.3104 471.4665 576.4226 470.9806 576.6395 470.3899 576.9536 469.6909L577.9704 467.4705C578.7255 465.844 579.0696 464.4462 579.0022 463.2721 578.9273 462.0983 578.4639 461.0367 577.6115 460.0834ZM565.6861 485.979 565.357 486.1621C564.931 486.4051 564.5424 486.5287 564.2133 486.536 563.8765 486.5437 563.5327 486.4051 563.1664 486.1247 562.8002 485.8404 562.3739 485.3619 561.8954 484.6816L553.955 473.4743 551.7643 475.0257 552.5643 493.422 552.5422 493.437 546.082 484.2145C545.4992 483.3808 545.2747 482.6333 545.4167 481.9788 545.5587 481.3211 545.9924 480.6666 546.7249 480.0127L547.0019 479.7584 546.359 478.8539 540.4224 483.0557 541.065 483.9605 541.3791 483.8145C541.8057 483.594 542.1943 483.482 542.5455 483.478 542.897 483.4743 543.2485 483.6013 543.6074 483.8593 543.9589 484.1212 544.3398 484.5359 544.7511 485.1119L550.7028 493.5231C551.0616 494.0277 551.2935 494.4427 551.4055 494.7568 551.5177 495.0746 551.5251 495.3586 551.4205 495.6126 551.3233 495.8631 551.1138 496.1398 550.785 496.4426L550.3516 496.8462 550.9942 497.7513 556.7513 493.6725 556.198 479.3658 560.5194 485.4781C561.0056 486.1582 561.3049 486.7415 561.4319 487.224 561.5515 487.7096 561.5289 488.1436 561.342 488.5248 561.1626 488.9098 560.8338 489.2987 560.3477 489.6913L559.9363 490.0501 560.5795 490.9623 566.3293 486.8949ZM530.441 490.0839C531.7569 489.3324 533.0877 489.3284 534.441 490.0649 535.7869 490.8016 537.1475 492.3754 538.5155 494.7866 541.1775 499.4634 541.1401 502.5736 538.4186 504.1213 535.697 505.669 533.0052 504.1063 530.3511 499.4297 528.9755 497.0183 528.3173 495.0445 528.3774 493.5081 528.4369 491.9717 529.1249 490.8314 530.441 490.0839ZM534.6128 506.5285C536.2053 506.5174 537.7008 506.1138 539.0989 505.3212 540.4972 504.525 541.6112 503.4447 542.4335 502.0801 543.2632 500.7155 543.6822 499.2052 543.7046 497.5418 543.727 495.8821 543.2709 494.2372 542.3437 492.611 541.4238 490.9808 540.2353 489.7508 538.7998 488.9134 537.3567 488.0761 535.8387 487.6651 534.2468 487.6761 532.6537 487.6875 531.1587 488.0874 529.7604 488.8837 528.3624 489.6799 527.2483 490.7565 526.4257 492.1211 525.5957 493.4891 525.1774 494.9997 525.155 496.6594 525.1323 498.3231 525.5884 499.9717 526.523 501.6053 527.4425 503.2315 528.6237 504.4652 530.0668 505.2951 531.5023 506.1288 533.0203 506.5398 534.6128 506.5285ZM523.2858 510.0129 517.805 498.5997C517.5884 498.1399 517.5062 497.7848 517.551 497.5268 517.6032 497.2652 517.805 497.0222 518.1639 496.7938L518.9417 496.2969 518.4632 495.2988 511.1734 498.7979 511.6518 499.7923 512.5116 499.5079C512.9306 499.3736 513.2517 499.3699 513.4839 499.4895 513.7155 499.6128 513.9397 499.9042 514.1642 500.3643L519.622 511.755C519.8462 512.2188 519.9361 512.5847 519.8837 512.8503 519.8315 513.112 519.622 513.3586 519.2631 513.5868L518.493 514.0689 518.9715 515.067 526.2687 511.5679 525.7902 510.5738 524.9231 510.8763C524.5194 511.0223 524.2054 511.0299 523.9661 510.8953 523.7269 510.768 523.5024 510.4729 523.2858 510.0129ZM512.392 511.3698 511.4049 511.7624 511.6218 513.8334C511.7117 514.6897 511.734 515.3253 511.6893 515.74 511.6368 516.155 511.4874 516.4917 511.2332 516.7457 510.9792 517 510.5452 517.2506 509.9323 517.4932L509.2968 517.7438 504.1154 504.671C503.9283 504.1998 503.8758 503.8296 503.951 503.5643 504.0258 503.295 504.2574 503.0671 504.646 502.8763L505.7527 502.3193 505.3416 501.2915 497.1543 504.5323 497.5583 505.5608 498.7468 505.2127C499.1581 505.086 499.487 505.097 499.7265 505.243 499.9654 505.3887 500.1826 505.6988 500.3694 506.1696L505.5435 519.2317 504.8555 519.501C504.2497 519.7402 503.7642 519.8485 503.3976 519.8187 503.0311 519.7927 502.7023 519.6427 502.4032 519.37 502.1042 519.097 501.7003 518.6262 501.192 517.9646L499.9209 516.312 498.9413 516.6969 501.177 522.3382 514.6277 517.0113ZM487.8833 519.6951 487.6739 522.2225 482.9488 516.2411 488.2346 514.6146ZM493.6329 505.8785 485.6403 508.3381 485.9617 509.396 486.7393 509.2503C487.6591 509.082 488.2122 509.3104 488.3992 509.9346 488.4888 510.211 488.5189 510.5401 488.4965 510.9287L488.3471 513.1568 482.0516 515.0937 480.8928 513.6279C480.6459 513.3138 480.4665 512.97 480.3469 512.5997 480.2423 512.2335 480.3168 511.8934 480.5785 511.5796 480.8404 511.2618 481.2367 510.9922 481.7673 510.7643L482.4403 510.4803 482.1114 509.4224 475.7261 511.3885 476.0478 512.4467 476.4813 512.4206C476.8775 512.3866 477.2214 512.4129 477.5131 512.5062 477.8124 512.5961 478.0964 512.7605 478.3802 513 478.6569 513.2353 478.9783 513.5757 479.3372 514.0131L487.5021 524.1739 487.3226 526.0955C488.3094 525.8784 489.1022 525.7587 489.7077 525.7327 490.3055 525.7066 490.8365 525.7962 491.3076 525.998L491.36 525.983 492.4219 509.4147C492.4664 508.712 492.5789 508.1958 492.7581 507.871 492.9301 507.5456 493.1994 507.3026 493.5657 507.1343L493.9543 506.9361ZM469.3187 524.0169C469.9916 524.4429 470.4401 525.2244 470.6719 526.3569L470.7167 526.5814C470.9339 527.6245 470.8213 528.4318 470.3803 529.0038 469.9318 529.5759 469.1693 529.9758 468.085 530.1964L467.6363 530.2899 466.014 530.6224 464.6755 524.1214 466.4625 523.7552C467.6964 523.5009 468.6457 523.5908 469.3187 524.0169ZM474.7992 515.0075C474.6722 514.3793 474.4253 513.8297 474.0514 513.3512 473.6775 512.869 473.184 512.5212 472.5632 512.3083 471.9504 512.0915 471.2326 512.0654 470.4177 512.2332 469.2739 512.4691 468.4586 512.9776 467.9804 513.7625 467.502 514.5477 467.3523 515.5829 467.5394 516.8653L467.7857 518.5066C467.9053 519.3663 467.9504 520.0503 467.9203 520.5515 467.8906 521.0521 467.7185 521.4711 467.4047 521.8109 467.0906 522.1477 466.5671 522.3906 465.8343 522.544L464.4139 522.8357 463.1652 516.7721C463.0606 516.2746 463.0683 515.9044 463.1803 515.6617 463.2922 515.4222 463.5468 515.2354 463.9578 515.101L464.8323 514.8017 464.6083 513.7138 456.6455 515.3513 456.8698 516.4393 457.782 516.3681C458.2157 516.3418 458.5371 516.4132 458.7316 516.5923 458.926 516.7681 459.0754 517.1046 459.18 517.6054L461.7371 530.043C461.8346 530.5255 461.8346 530.8991 461.7298 531.157 461.6325 531.4187 461.3783 531.6094 460.982 531.7364L460.0774 532.0281 460.294 533.1161 468.8623 531.3552C471.0832 530.8951 472.7279 530.1927 473.7821 529.2468 474.8363 528.3011 475.2179 527.1009 474.9185 525.6541 474.7467 524.8281 474.3652 524.1589 473.76 523.643 473.1542 523.1307 472.3543 522.7906 471.3673 522.6262 470.3726 522.4578 469.2288 522.4878 467.9203 522.716L467.913 522.6897C469.0497 522.3421 469.9168 521.8483 470.5072 521.2128 471.098 520.5736 471.4795 519.8522 471.6513 519.0486 471.8234 518.2449 471.8605 517.3438 471.7712 516.3454L471.6814 515.1532C471.6513 514.7232 471.6887 514.4131 471.7933 514.2186 471.8979 514.0244 472.0776 513.8972 472.3316 513.8447 472.6009 513.7926 472.8402 513.8711 473.057 514.0803 473.2665 514.2934 473.4309 514.6707 473.5429 515.213L473.7671 516.3009 475.0157 516.043ZM444.6604 527.258 446.8136 527.0187C447.8006 526.9068 448.5631 527.1086 449.094 527.6205 449.625 528.1328 449.9538 528.9517 450.0811 530.0768 450.2007 531.1721 450.0062 531.9683 449.498 532.4655 448.9892 532.9664 448.2043 533.2768 447.1427 533.3927L446.5894 533.4559 445.3631 533.5906ZM449.625 521.2653C449.782 522.6525 449.625 523.7141 449.1465 524.4466 448.6754 525.1793 447.9352 525.602 446.9182 525.7176L444.5184 525.9832 443.651 518.2112 444.8248 518.0803 445.7971 517.972C447.0307 517.8373 447.9426 518.0579 448.5334 518.6336 449.1315 519.2093 449.498 520.0877 449.625 521.2653ZM453.4455 522.9553C453.8044 522.2299 453.9387 521.4597 453.8494 520.6524 453.7596 519.8221 453.4605 519.0673 452.9597 518.398 452.4585 517.7251 451.6809 517.2094 450.6341 516.8543 449.5802 516.4991 448.234 516.4129 446.6041 516.5923L437.4828 517.6054 437.6024 518.7047 438.5517 518.7158C438.9707 518.7195 439.2621 518.8241 439.4415 519.0299 439.6139 519.2354 439.7335 519.5832 439.7854 520.069L441.1837 532.6262C441.2361 533.1121 441.1987 533.4823 441.0714 533.7292 440.9518 533.9761 440.6828 534.1439 440.2715 534.2338L439.3519 534.4396 439.4716 535.5346 448.1668 534.5702C450.3424 534.3273 451.9202 533.7887 452.8996 532.9514 453.8716 532.114 454.2902 531.0822 454.1559 529.8562 454.0363 528.7609 453.5053 527.8972 452.5634 527.2656 451.6211 526.6338 450.3725 526.2897 448.825 526.2338V526.2075C449.9765 525.8897 450.9482 525.4523 451.7334 524.8877 452.5183 524.3236 453.0866 523.6804 453.4455 522.9553ZM433.9239 517.7999 419.0153 518.2112 419.0451 519.3179 419.9907 519.4074C420.406 519.4449 420.6937 519.5758 420.8545 519.7963 421.0115 520.0166 421.1014 520.3718 421.1124 520.8653L421.4602 533.5347C421.475 534.0283 421.4078 534.3945 421.2621 534.63 421.1161 534.8693 420.8357 535.015 420.421 535.0674L419.4825 535.1947 419.5125 536.3048 434.2156 535.9011 434.0509 529.6989 432.9142 529.7292 432.466 531.83C432.3013 532.5667 432.1071 533.1385 431.8679 533.5421 431.6287 533.9497 431.2882 534.2485 430.8471 534.4396 430.4058 534.6264 429.8003 534.7346 429.0265 534.7534L427.7931 534.7908 425.5648 534.8506 425.3814 528.2039 427.3404 528.1515C427.8677 528.1367 428.2676 528.1551 428.548 528.2113 428.8246 528.2671 429.0452 528.3944 429.2133 528.5962 429.3816 528.7944 429.5237 529.1045 429.647 529.5274L429.9012 530.4095 431.0342 530.3795 430.8695 524.4466 429.7368 524.4766 429.531 525.3625C429.4267 525.7998 429.2955 526.1176 429.1387 526.3234 428.9817 526.5252 428.7685 526.6636 428.4995 526.7347 428.2302 526.8056 427.8302 526.8504 427.307 526.8617L425.3443 526.9178 425.1351 519.3289 427.3367 519.2691 428.4955 519.2354C429.2881 519.213 429.9165 519.3102 430.3911 519.5197 430.8659 519.7329 431.2508 520.088 431.5462 520.5849 431.8452 521.0824 432.1145 521.7925 432.3538 522.7123L432.9369 524.9738 434.118 524.9441ZM415.8711 518.1701 402.2487 517.4226 402.1852 518.529 403.1235 518.6971C403.5345 518.7682 403.8111 518.9253 403.9534 519.1569 404.0915 519.3887 404.1479 519.755 404.1218 520.2448L403.4262 532.9142C403.4001 533.4001 403.3029 533.7516 403.1382 533.9721 402.9701 534.1927 402.6787 534.3123 402.2597 534.335L401.3141 534.3831 401.2506 535.5162 409.6545 535.9793 409.718 534.8469 408.5515 534.6788C408.1215 534.6224 407.8301 534.473 407.6768 534.2301 407.5234 533.9869 407.4599 533.6206 407.486 533.1274L408.2638 519.0449 409.8039 519.1271 410.5179 519.1682C411.3142 519.2093 411.9273 519.3513 412.357 519.5869 412.7871 519.8261 413.1198 520.2113 413.3554 520.7457 413.591 521.2843 413.7851 522.0765 413.9385 523.1234L414.301 525.6094 415.4598 525.6729ZM398.514 517.0374 383.7402 515.1195 383.5979 516.2187 384.5177 516.4543C384.9214 516.5589 385.1867 516.731 385.3063 516.9739 385.4296 517.2168 385.4594 517.5791 385.3962 518.0689L383.7699 530.6224C383.7061 531.1086 383.5828 531.4598 383.4034 531.6729 383.2206 531.8824 382.9212 531.9833 382.5028 531.972L381.5566 531.9533 381.4149 533.0486 395.9867 534.9404 396.7829 528.7944 395.6618 528.6487 394.8877 530.6525C394.6187 531.3515 394.3346 531.8861 394.0353 532.2489 393.7326 532.6115 393.351 532.8507 392.8878 532.9701 392.4244 533.0897 391.8073 533.101 391.0448 533.0041L389.8185 532.8431 387.6129 532.5554 388.4652 525.9719 390.4092 526.2225C390.9288 526.2897 391.3211 526.3722 391.587 526.4731 391.8523 526.57 392.0542 526.7307 392.1851 526.955 392.3195 527.1758 392.413 527.5049 392.4692 527.9386L392.5811 528.8545 393.7028 528.9962 394.4653 523.1197 393.3439 522.9737 393.0035 523.815C392.8314 524.2263 392.6523 524.5214 392.4655 524.7009 392.2784 524.8769 392.0505 524.9815 391.7699 525.0076 391.4935 525.0373 391.0932 525.0149 390.5736 524.9477L388.6299 524.6972 389.6053 517.1757 391.7889 517.4595 392.9363 517.6094C393.7175 517.71 394.327 517.9008 394.7607 518.1849 395.1941 518.4692 395.5195 518.8765 395.7367 519.4151 395.9532 519.9534 396.1063 520.6932 396.1962 521.6355L396.4241 523.9607 397.5945 524.1141ZM378.2747 517.4561C377.8968 516.2598 377.2429 515.213 376.3043 514.3082 375.366 513.4073 374.1775 512.7942 372.7307 512.4651 371.1305 512.1026 369.6089 512.17 368.1621 512.6672 366.7192 513.1644 365.4819 514.0242 364.4575 515.2394 363.4294 516.458 362.719 517.9306 362.3267 519.6654 361.9117 521.5048 361.938 523.2132 362.4052 524.7867 362.8723 526.3571 363.6799 527.673 364.8277 528.7272 365.9715 529.7777 367.3247 530.4841 368.8841 530.8359 370.0726 531.1049 371.1192 531.157 372.0203 530.9929 372.9212 530.8282 373.6763 530.57 374.2818 530.2225L374.794 532.1588 375.8111 532.3907 377.3735 525.4934 376.3454 525.2615C375.3473 527.0148 374.3118 528.2487 373.2313 528.9701 372.155 529.6878 370.9848 529.9047 369.7211 529.617 368.1099 529.2541 367.041 528.3122 366.5137 526.7982 365.9828 525.2805 366.0092 523.243 366.5883 520.6822 367.0929 518.4618 367.9118 516.8018 369.0519 515.6989 370.1886 514.6002 371.6277 514.2444 373.3586 514.6373 374.3419 514.8615 375.1492 515.2842 375.7813 515.9083 376.4092 516.5325 376.854 517.284 377.1119 518.1625 377.3699 519.0409 377.4484 519.9795 377.3548 520.9702L378.6182 521.0898C378.7642 519.8635 378.6486 518.6523 378.2747 517.4561ZM349.5042 524.4843 349.1563 524.2785C348.7938 524.0543 348.5095 523.8074 348.3113 523.531 348.1135 523.258 347.9525 522.9215 347.8368 522.5326 347.7172 522.1403 347.5899 521.5833 347.4556 520.8542L346.0796 513.6355 347.8703 508.6522C348.0423 508.1698 348.2442 507.856 348.476 507.7026 348.7076 507.5495 349.033 507.5306 349.4517 507.6465L350.6593 507.9569 351.0369 506.91 342.6851 503.9121 342.3078 504.9587 343.4479 505.4893C343.8366 505.6654 344.0758 505.8893 344.158 506.1586 344.2442 506.4279 344.1994 506.8052 344.0273 507.2876L342.2517 512.2335 335.3992 517.4597C334.9619 517.7925 334.6254 518.0318 334.3861 518.1775 334.1506 518.3232 333.9077 518.4204 333.6644 518.4692 333.4215 518.514 333.1375 518.5026 332.8087 518.4317L332.4796 518.368 332.1017 519.4148 340.0909 522.286 340.4684 521.2392 339.9225 520.9441C339.601 520.7757 339.3768 520.5889 339.2495 520.3794 339.1191 520.17 339.0965 519.9494 339.1824 519.7141 339.2685 519.4749 339.4851 519.213 339.8292 518.9289L345.0144 514.7867 346.0051 520.2374C346.1321 520.9174 346.1247 521.4487 345.9861 521.8336 345.7508 522.4915 345.1303 522.7047 344.1283 522.4694L343.5489 522.3458 343.1713 523.3924 349.1303 525.5308ZM326.4721 509.0335C326.7638 509.7696 326.6702 510.6634 326.1917 511.7102L326.0982 511.9197C325.6608 512.8838 325.0925 513.4671 324.4008 513.6693 323.7094 513.8711 322.8644 513.7438 321.8627 513.2877L321.444 513.0969 319.9411 512.4129 322.6737 506.4018 324.33 507.153C325.47 507.6726 326.1841 508.297 326.4721 509.0335ZM336.1657 504.9961C336.4271 504.4204 336.5507 503.8299 336.532 503.2242 336.5133 502.6184 336.3188 502.0503 335.9486 501.5154 335.5787 500.9774 335.0143 500.54 334.2591 500.1962 333.2047 499.7137 332.2514 499.65 331.403 500.0014 330.558 500.3493 329.8329 501.0931 329.2311 502.2334L328.4646 503.7026C328.0606 504.4689 327.6981 505.0409 327.3803 505.4258 327.0626 505.8111 326.6776 506.0503 326.2252 506.1399 325.7765 506.2258 325.2124 506.1175 324.5357 505.8074L323.2159 505.2093 325.7654 499.6015C325.9749 499.138 326.1954 498.8426 326.427 498.7157 326.6549 498.5847 326.9767 498.5887 327.3803 498.7157L328.2627 498.9923 328.7188 497.9829 321.3502 494.6372 320.8944 495.6426 321.6682 496.1174C322.0381 496.353 322.2476 496.5959 322.3035 496.8539 322.3599 497.1118 322.2814 497.4707 322.0719 497.9341L316.842 509.4411C316.6364 509.8898 316.4196 510.1886 316.184 510.338 315.9485 510.484 315.6307 510.495 315.2384 510.3607L314.3409 510.0653 313.8814 511.071 321.8029 514.671C323.8625 515.6056 325.5936 516.0016 326.9993 515.8599 328.405 515.7176 329.4102 514.9738 330.0197 513.6318 330.3672 512.869 330.4494 512.1026 330.2626 511.3363 330.0758 510.5662 329.6347 509.826 328.9357 509.1157 328.2367 508.4016 327.2944 507.7511 326.1093 507.1643L326.1206 507.1416C327.2386 507.5308 328.2216 507.6391 329.074 507.4744 329.9261 507.3063 330.6552 506.9511 331.2609 506.4055 331.8704 505.8561 332.4274 505.1529 332.9393 504.2971L333.5675 503.2837C333.7954 502.9248 334.0086 502.6969 334.2067 502.5997 334.4049 502.5027 334.6217 502.5101 334.8609 502.6184 335.1076 502.7306 335.2535 502.9325 335.302 503.2312 335.3468 503.5269 335.2572 503.9232 335.029 504.4241L334.5732 505.4295 335.7283 505.9568ZM317.9971 492.8128 304.9988 485.4257 304.4494 486.39 305.2157 486.9584C305.5521 487.209 305.7316 487.4706 305.754 487.7396 305.7763 488.0126 305.6641 488.3641 305.4212 488.7941L299.1447 499.8334C298.8978 500.2631 298.6549 500.5437 298.4043 500.6707 298.154 500.798 297.8399 500.779 297.4547 500.6072L296.5839 500.2296 296.0342 501.194 308.8531 508.4838 311.9258 503.0785 310.9391 502.5175 309.4586 504.0839C308.9429 504.6335 308.4755 505.0185 308.0605 505.2427 307.6455 505.4635 307.1971 505.5457 306.7223 505.478 306.2438 505.4148 305.6681 505.1906 304.9951 504.8053L303.9185 504.1962 301.9782 503.0892 305.2718 497.2989 306.9802 498.2669C307.4397 498.5289 307.7725 498.7568 307.982 498.9472 308.1915 499.1417 308.3148 499.3662 308.3522 499.6239 308.3933 499.8781 308.3559 500.222 308.2439 500.6446L308.001 501.5341 308.9877 502.0988 311.9258 496.925 310.9391 496.364 310.3036 497.0186C309.9858 497.3363 309.7091 497.5418 309.4699 497.6351 309.2306 497.7286 308.9764 497.7363 308.7074 497.6578 308.4384 497.5792 308.0755 497.4072 307.6155 497.1492L305.9073 496.1772 309.668 489.5603 311.586 490.6519 312.5988 491.2277C313.2867 491.6163 313.7766 492.0276 314.0717 492.4539 314.3673 492.8837 314.513 493.3848 314.513 493.9679 314.509 494.5473 314.371 495.2951 314.098 496.2073L313.4248 498.4503 314.4569 499.0371ZM293.6044 498.3979 293.3538 498.151C292.9238 497.7286 292.6397 497.306 292.5017 496.8799 292.3668 496.4576 292.3257 496.0091 292.3858 495.5457 292.4416 495.078 292.5726 494.4387 292.7784 493.6317L296.348 479.5155 294.6997 478.3788 280.6586 487.62C280.2359 487.9003 279.8583 488.0497 279.5179 488.0687 279.178 488.0877 278.7817 487.9865 278.3256 487.766L277.8324 487.5341 277.2003 488.45 284.5386 493.5044 285.1707 492.5886 284.5834 492.0463C284.2472 491.7399 284.0417 491.4595 283.9669 491.1942 283.896 490.9323 283.9482 490.6783 284.1202 490.424 284.2994 490.1658 284.6619 489.848 285.2118 489.4707L291.653 485.0257 293.9071 483.4443 293.9258 483.4593 291.6604 492.1475C291.5484 492.5849 291.4098 493.0033 291.2567 493.4032 291.0997 493.7995 290.939 494.1173 290.7743 494.3565 290.6172 494.5884 290.4452 494.7678 290.2623 494.8988 290.0826 495.0255 289.8363 495.0856 289.5296 495.0743 289.2229 495.0632 288.8379 494.9399 288.3781 494.7083L287.9481 494.5025 287.3166 495.4184 292.9725 499.3138ZM285.6566 472.0238 274.1649 462.4498 273.4546 463.3021 274.1085 463.9975C274.3929 464.3042 274.5238 464.5916 274.4977 464.8646 274.4714 465.1339 274.2996 465.4593 273.9855 465.8406L265.847 475.6051C265.5332 475.9826 265.2375 476.2145 264.9722 476.2967 264.7029 476.3789 264.3965 476.3004 264.0489 476.0688L263.2564 475.5416 262.5463 476.3937 273.8806 485.8404 277.8619 481.0592 276.9871 480.3304 275.2566 481.6162C274.6471 482.061 274.1199 482.3603 273.6711 482.506 273.2227 482.6517 272.7703 482.6517 272.3108 482.5023 271.8544 482.3529 271.3272 482.0312 270.7294 481.534L269.7797 480.7414 268.06 479.3134 272.3292 474.1883 273.8432 475.448C274.2471 475.7885 274.5349 476.0688 274.7066 476.2967 274.8787 476.5209 274.9609 476.7639 274.9572 477.0255 274.9499 477.2874 274.8526 477.6163 274.6658 478.0125L274.2693 478.8462 275.1406 479.5753 278.9535 475.003 278.079 474.2739 277.3389 474.8049C276.9687 475.0631 276.6583 475.2164 276.404 475.2649 276.1537 475.3171 275.9034 475.276 275.6529 475.1527 275.4023 475.0257 275.0732 474.7941 274.6698 474.4573L273.1555 473.1976 278.0303 467.3506 279.7277 468.7639 280.6209 469.5077C281.2303 470.016 281.6416 470.5058 281.8585 470.9769 282.0716 471.4517 282.1275 471.975 282.0229 472.5471 281.9183 473.1191 281.649 473.8294 281.219 474.6779L280.1574 476.7715 281.0696 477.5304ZM260.6357 460.4496 260.2806 459.9638C260.0487 459.6347 259.9665 459.347 260.0337 459.1003 260.0974 458.8571 260.318 458.5581 260.6956 458.1995L265.3384 453.7956 264.617 453.0365 262.1347 453.3429 262.0826 453.2871C262.12 452.562 262.0225 451.7246 261.7982 450.775 261.5703 449.8288 260.987 448.8608 260.0527 447.8774 258.9086 446.6701 257.5925 445.8736 256.1012 445.4887 254.6093 445.1 253.0916 445.1374 251.5476 445.6009 250.0038 446.061 248.5797 446.9057 247.2823 448.1393 245.9214 449.4288 245.0055 450.8569 244.5307 452.4197 244.0522 453.9824 244.0037 455.5191 244.3813 457.0254 244.7626 458.532 245.503 459.8666 246.6057 461.029 247.4393 461.9115 248.2804 462.5359 249.1217 462.9056 249.9664 463.2758 250.7513 463.4889 251.4844 463.5411L250.8225 465.4517 251.5402 466.2068 256.6803 461.3284 255.9518 460.5619C254.1047 461.4851 252.5383 461.9412 251.2599 461.9302 249.9775 461.9188 248.8748 461.4219 247.9439 460.4423 246.9121 459.3543 246.5345 458.0459 246.8188 456.5208 247.0992 454.9955 248.2543 453.272 250.2765 451.3504 251.7236 449.9787 253.0054 449.0289 254.1237 448.5056 255.2411 447.9823 256.2131 447.8066 257.0431 447.9786 257.8728 448.1504 258.6356 448.6028 259.331 449.3356 259.9291 449.9637 260.2769 450.6214 260.3775 451.317 260.4787 452.0086 260.4078 452.6442 260.1573 453.2196L257.9068 455.3544C257.529 455.7132 257.1925 455.8813 256.8898 455.8666 256.587 455.8479 256.2282 455.6494 255.8095 455.2758L255.1442 454.6627 254.3213 455.4442 259.8134 461.2309ZM238.6131 450.072 238.415 449.7579C238.1533 449.3392 238.011 448.9617 237.9889 448.6289 237.9662 448.2961 238.0895 447.9409 238.3515 447.5636 238.6168 447.1858 239.0763 446.7413 239.7345 446.2288L250.5645 437.7915 248.9122 435.6717 230.5794 437.313 230.5607 437.294 239.4763 430.4157C240.2841 429.7949 241.0206 429.5409 241.6785 429.6492 242.3404 429.7581 243.017 430.1651 243.7007 430.8681L243.9703 431.1261 244.8448 430.4455 240.3737 424.711 239.4989 425.3913 239.6599 425.7014C239.8992 426.1167 240.0296 426.5016 240.0486 426.8529 240.0712 427.2007 239.9587 427.5598 239.7158 427.9258 239.4731 428.2923 239.0763 428.6923 238.5196 429.126L230.3923 435.4586C229.9028 435.8401 229.5028 436.0907 229.1885 436.2174 228.8784 436.341 228.594 436.3597 228.3401 436.2738 228.0818 436.1876 227.7978 435.9895 227.4763 435.6757L227.0577 435.2604 226.1829 435.941 230.5193 441.5074 244.7813 440.2925 238.8745 444.8982C238.2168 445.4065 237.6522 445.7356 237.1737 445.8849 236.6952 446.0306 236.2615 446.0196 235.8692 445.8589 235.4766 445.6945 235.0766 445.3804 234.6616 444.9166L234.284 444.5167 233.4019 445.2046 237.727 450.7637ZM224.7772 428.853 235.3754 421.8661C235.802 421.5855 236.1458 421.4511 236.4111 421.4659 236.6728 421.4809 236.9421 421.6493 237.2185 421.9781L237.8205 422.6811 238.7438 422.068 234.2803 415.2977 233.3531 415.9071 233.7568 416.7258C233.9436 417.1184 233.9923 417.4398 233.9025 417.6904 233.8126 417.937 233.555 418.1987 233.1289 418.479L222.5531 425.4548C222.1194 425.7391 221.7679 425.8738 221.4986 425.8587 221.2296 425.844 220.9567 425.6719 220.68 425.3465L220.0966 424.6472 219.1737 425.2567 223.6371 432.0306 224.564 431.4212 224.1417 430.5988C223.9435 430.2215 223.8951 429.9072 223.9923 429.6532 224.0892 429.3986 224.3511 429.1333 224.7772 428.853ZM232.7326 413.1108 228.8146 406.0865 227.8463 406.6248 228.0146 407.0846C228.1309 407.391 228.1677 407.634 228.1309 407.8213 228.0932 408.0081 227.9849 408.1499 227.8091 408.2474 227.5699 408.3817 227.2037 408.4415 226.6988 408.4302L219.9886 408.3446 220.9867 405.2004 224.2239 403.3911C224.6689 403.1444 225.0204 403.0362 225.282 403.0733 225.5437 403.107 225.8016 403.2938 226.0522 403.6414L226.5979 404.3818 227.5625 403.8432 223.6184 396.7744 222.654 397.3124 222.9939 398.1574C223.151 398.5651 223.1773 398.8865 223.0688 399.1258 222.9605 399.365 222.6838 399.6113 222.2388 399.8582L211.1958 406.0193C210.7437 406.2696 210.3846 406.3782 210.1192 406.3445 209.8502 406.3071 209.592 406.1163 209.3417 405.7724L208.8145 405.0357 207.8461 405.5743 211.7903 412.6436 212.7586 412.105 212.3997 411.2563C212.2313 410.864 212.2053 410.5463 212.3212 410.3033 212.4369 410.0601 212.7172 409.8138 213.1622 409.5669L219.3083 406.135 216.8444 413.7951C216.5865 414.6211 216.2276 415.1597 215.7678 415.4173 215.5249 415.552 215.2857 415.5707 215.0538 415.4734 214.8182 415.3762 214.5827 415.152 214.3471 414.7968L213.8987 414.1463 212.9306 414.6846 216.665 421.3763 217.6296 420.838 217.5659 420.6696C217.2518 419.8289 217.1285 418.9652 217.2036 418.0791 217.2784 417.1929 217.4652 416.2844 217.7677 415.3465L218.7513 412.2547 229.3532 412.4492C229.7234 412.4565 230.0298 412.4863 230.269 412.5424 230.5083 412.5986 230.7362 412.6995 230.9533 412.8454 231.1699 412.9911 231.4015 413.2117 231.6484 413.5147L231.768 413.6491ZM208.078 390.4002 205.5359 390.49 210.9529 385.0804 213.1883 390.1609ZM222.5268 394.5311 219.1473 386.8413 218.1305 387.29 218.3661 388.0525C218.6388 388.9426 218.4744 389.5217 217.8763 389.787 217.6109 389.9032 217.2818 389.9741 216.8932 389.9965L214.6538 390.1014 211.9921 384.0525 213.3193 382.729C213.6033 382.445 213.9248 382.2245 214.2836 382.0674 214.6314 381.9144 214.9829 381.9478 215.3268 382.172 215.6706 382.3965 215.9884 382.7628 216.2761 383.2673L216.6386 383.9031 217.6557 383.4541 214.9529 377.3083 213.9361 377.7571 214.0106 378.1831C214.0892 378.576 214.1005 378.9235 214.0444 379.23 213.9883 379.533 213.8576 379.8394 213.6555 380.1458 213.45 380.4562 213.1512 380.8111 212.7549 381.2187L203.5658 390.5459 201.6332 390.587C201.9657 391.5479 202.1751 392.3254 202.2724 392.9238 202.3656 393.518 202.3396 394.06 202.1939 394.5535L202.2126 394.5986 218.8596 393.7309C219.5697 393.6974 220.0969 393.7499 220.4408 393.8882 220.7846 394.0226 221.0579 394.2658 221.2668 394.6096L221.51 394.9758Z" fill="#ffd87d"/>
<path transform="matrix(1,0,0,-1,0,595.2756)" d="M280.2322 124.0455 271.963 114.4939C271.6302 114.1126 271.4545 113.7875 271.436 113.5259 271.4134 113.2639 271.548 112.9765 271.836 112.6621L272.4489 111.9781 271.7274 111.1445 265.6264 116.4268 266.3478 117.2605 267.1104 116.752C267.4655 116.5127 267.7686 116.4231 268.0302 116.483 268.2882 116.5465 268.5832 116.767 268.9163 117.1483L273.0209 121.8923 267.933 126.2959 263.8208 121.5448C263.488 121.1632 263.3122 120.8378 263.2938 120.5765 263.2711 120.3148 263.4058 120.0268 263.6901 119.713L264.3069 119.0288 263.5849 118.1951 257.4845 123.4772 258.2056 124.3108 258.9608 123.8102C259.3233 123.5707 259.634 123.4811 259.8917 123.5409 260.1459 123.5968 260.4416 123.8176 260.7741 124.1989L269.0246 133.7318C269.3648 134.1204 269.5405 134.4495 269.5629 134.7185 269.5816 134.9878 269.4472 135.2755 269.1629 135.5933L268.5461 136.2589 269.2675 137.0925 275.3722 131.8065 274.6508 130.9725 273.892 131.4961C273.5481 131.739 273.2414 131.8289 272.9798 131.7651 272.7181 131.7019 272.4228 131.4777 272.09 131.0961L268.8712 127.3802 273.9591 122.9726 277.1668 126.6812C277.5067 127.0698 277.6864 127.3989 277.7125 127.6679 277.7389 127.9372 277.6042 128.2249 277.3125 128.5353L276.692 129.2085 277.4134 130.0419 283.5145 124.7559 282.793 123.9222 282.0379 124.4455C281.6904 124.6887 281.3837 124.7783 281.122 124.7148 280.8601 124.6513 280.565 124.4268 280.2322 124.0455ZM583.1144 122.8045 571.892 112.9538 571.159 113.7875 571.7945 114.4979C572.0712 114.8117 572.1985 115.1033 572.161 115.3723 572.1313 115.6419 571.9516 115.9634 571.6225 116.3333L563.2563 125.8662C562.9346 126.2364 562.6358 126.4567 562.3662 126.5315 562.0972 126.6066 561.7908 126.5241 561.4469 126.2812L560.6768 125.7352 559.944 126.5692 571.0096 136.2849 575.0991 131.6194 574.2468 130.8682 572.4901 132.1055C571.8694 132.5356 571.3387 132.8196 570.8826 132.954 570.4339 133.0886 569.9778 133.0736 569.5291 132.9165 569.073 132.7558 568.5571 132.4196 567.974 131.9074L567.0468 131.0924 565.3721 129.6196 569.7609 124.6212 571.2338 125.9147C571.6301 126.2625 571.9141 126.5542 572.0788 126.7821 572.2432 127.0137 572.3181 127.2569 572.3104 127.5185 572.2954 127.7765 572.1908 128.1053 571.989 128.4942L571.5777 129.3168 572.43 130.068 576.3481 125.6009 575.4954 124.8534 574.7406 125.3653C574.3667 125.6122 574.0529 125.754 573.7983 125.799 573.5441 125.8438 573.2974 125.799 573.0508 125.6681 572.8039 125.5371 572.4825 125.2979 572.0862 124.9503L570.6133 123.6532 575.6227 117.9448 577.2824 119.3987 578.1495 120.1652C578.7482 120.6848 579.1442 121.1859 579.3463 121.6644 579.5481 122.1429 579.5929 122.6622 579.473 123.2306 579.3534 123.7989 579.0696 124.5016 578.6133 125.339L577.4992 127.3989 578.3967 128.1801ZM559.4879 124.5053 559.2487 124.255C558.83 123.8213 558.5607 123.3952 558.4337 122.9689 558.3067 122.5429 558.2843 122.0978 558.3515 121.6344 558.4187 121.1709 558.5681 120.5388 558.7926 119.7388L562.703 105.7836 561.0881 104.6098 546.8822 113.4473C546.4559 113.7166 546.0749 113.8547 545.7382 113.866 545.3943 113.8774 545.0054 113.7651 544.557 113.5332L544.0711 113.2903 543.4203 114.1877 550.5982 119.4063 551.2487 118.5089 550.6727 117.9556C550.3436 117.6418 550.1494 117.3538 550.0823 117.0924 550.0225 116.8305 550.0749 116.5765 550.2543 116.3296 550.4411 116.0753 550.8074 115.7689 551.3683 115.4061L557.8877 111.1445 560.1682 109.6305 560.1909 109.6455 557.7157 118.2362C557.589 118.6659 557.447 119.0809 557.2826 119.4735 557.1179 119.8658 556.9458 120.1799 556.7814 120.4121 556.6167 120.64 556.4375 120.812 556.2578 120.9353 556.071 121.0586 555.8244 121.1108 555.518 121.0924 555.211 121.0737 554.8374 120.9427 554.3813 120.6998L553.9626 120.4829 553.3121 121.3801 558.8376 125.4025ZM542.9645 93.922C544.2506 94.6993 544.9082 95.851 544.9232 97.376 544.9459 98.905 544.2429 100.8451 542.8225 103.208 540.0635 107.7874 537.357 109.2716 534.6879 107.6678 532.0261 106.0605 532.0706 102.9725 534.8222 98.3931 536.243 96.0304 537.6336 94.5011 538.994 93.8061 540.3475 93.1068 541.6707 93.1479 542.9645 93.922ZM530.7471 105.5409C531.5326 106.9163 532.6092 108.0153 533.9846 108.8419 535.3532 109.6639 536.826 110.1013 538.4109 110.1538 539.996 110.2025 541.5063 109.8323 542.9568 109.0437 544.4073 108.2511 545.6112 107.0586 546.5682 105.4658 547.5251 103.8733 548.0186 102.2471 548.041 100.5951 548.0634 98.9425 547.6898 97.4248 546.9046 96.0491 546.1197 94.6732 545.0355 93.5742 543.6669 92.7516 542.2992 91.9256 540.826 91.4882 539.2412 91.4394 537.6557 91.387 536.1454 91.7572 534.6952 92.5498 533.2448 93.3389 532.0409 94.5351 531.0763 96.1347 530.1193 97.7312 529.626 99.3501 529.6034 101.0021 529.5807 102.651 529.9622 104.165 530.7471 105.5409ZM532.0559 86.4938 519.8088 80.4934 519.323 81.4878 520.1152 82.0077C520.4667 82.2359 520.6612 82.4862 520.6989 82.7555 520.7363 83.0245 520.6538 83.3797 520.437 83.8247L514.8522 95.2152C514.6427 95.6489 514.4182 95.9369 514.1789 96.0752 513.9397 96.2133 513.6256 96.2133 513.2296 96.0678L512.3395 95.7424 511.8389 96.7629 519.3978 100.4641 519.8913 99.4433 518.8893 98.8379C518.5083 98.6173 518.2988 98.3631 518.2537 98.0824 518.2089 97.7987 518.2988 97.4361 518.5083 96.9911L524.7136 84.329 526.0966 85.0096 526.7398 85.3237C527.4575 85.6749 527.9664 86.0414 528.2728 86.4266 528.5716 86.8116 528.7286 87.2974 528.7363 87.8845 528.7436 88.4673 528.6166 89.2752 528.3473 90.2993L527.7118 92.7258 528.7513 93.2377ZM501.9846 89.589 506.1713 77.5928C506.3434 77.1106 506.5376 76.7965 506.7544 76.6471 506.9716 76.4972 507.293 76.4674 507.7117 76.5609L508.6165 76.7554 508.9754 75.7086 501.3116 73.0281 500.9451 74.0786 501.7751 74.4863C502.1637 74.6768 502.3882 74.8973 502.4704 75.1552 502.5453 75.4135 502.5002 75.7794 502.3284 76.2616L500.25 82.2172 493.8574 79.9852 495.9431 74.0151C496.1151 73.5367 496.3096 73.2189 496.5265 73.0729 496.743 72.9235 497.0648 72.8938 497.4834 72.987L498.3883 73.1815 498.7545 72.1346 491.0834 69.4542 490.7169 70.501 491.5395 70.9087C491.9281 71.1065 492.16 71.3347 492.2348 71.5853 492.317 71.8393 492.2719 72.2058 492.1004 72.688L487.9205 84.6584C487.7487 85.1479 487.5469 85.4694 487.33 85.6191 487.1058 85.7724 486.7843 85.8022 486.3654 85.7086L485.4759 85.5065 485.1094 86.5536 492.7731 89.2341 493.1396 88.1872 492.3096 87.7873C491.9207 87.6078 491.6889 87.387 491.6143 87.1257 491.5395 86.8637 491.584 86.4938 491.756 86.0117L493.3862 81.3461 499.7713 83.5778 498.149 88.2357C497.9769 88.7255 497.7825 89.0473 497.5583 89.204 497.3338 89.3611 497.0197 89.3871 496.6013 89.2902L495.7041 89.0807 495.3379 90.1276 503.0011 92.8077 503.3676 91.7612 502.5376 91.3612C502.149 91.1815 501.9174 90.9612 501.8423 90.6993 501.7677 90.4416 501.8125 90.0677 501.9846 89.589ZM483.9282 79.9628 482.889 79.6975 481.8419 81.5179C481.4158 82.2694 481.0569 82.8003 480.7729 83.1104 480.4812 83.4208 480.1601 83.6039 479.8083 83.66 479.4494 83.7198 478.9485 83.6674 478.3056 83.503L477.6327 83.3312 481.1318 69.6115C481.2591 69.1177 481.4308 68.7813 481.6477 68.6095 481.8645 68.4374 482.1936 68.3887 482.6197 68.4635L483.8533 68.658 484.13 67.5777 475.5319 65.3905 475.255 66.4673 476.4288 66.886C476.8404 67.0241 477.1018 67.2262 477.214 67.4881 477.3263 67.7494 477.3112 68.1273 477.1916 68.6205L473.7002 82.3294 472.9748 82.1458C472.3393 81.985 471.8832 81.7832 471.5989 81.544 471.3225 81.3047 471.1354 80.987 471.0532 80.587 470.971 80.1907 470.9186 79.5702 470.8962 78.7292L470.8363 76.6284 469.8122 76.3665 468.3019 82.2881 482.4179 85.8841ZM463.771 78.6283 466.1033 66.1646C466.1932 65.6634 466.3426 65.3236 466.53 65.1438 466.7241 64.9647 467.0382 64.8899 467.4643 64.9159L468.3838 64.9718 468.5859 63.8841 460.6231 62.3962 460.4213 63.4842 461.2884 63.7645C461.7 63.8989 461.9614 64.0899 462.081 64.3252 462.1935 64.5644 462.2083 64.9307 462.111 65.4318L459.7858 77.8694C459.6959 78.3777 459.5465 78.7218 459.3523 78.9049 459.1502 79.088 458.8364 79.1666 458.4101 79.1365L457.5053 79.0733 457.3035 80.1612 465.266 81.6489 465.4684 80.5612 464.5857 80.2916C464.1823 80.172 463.9204 79.9889 463.8008 79.746 463.6885 79.4993 463.6811 79.1252 463.771 78.6283ZM455.9278 78.2918 455.5913 78.1982C455.0083 78.0412 454.5519 77.7946 454.208 77.4507 453.8639 77.1106 453.6026 76.6993 453.4157 76.2208 453.2213 75.7423 453.0342 75.0991 452.8474 74.2915L449.6547 60.6617 447.6736 60.4749 441.9839 71.9254 439.0305 59.6747 437.0417 59.4913 429.7706 74.3814C429.55 74.8378 429.2994 75.1516 429.0191 75.3233 428.7424 75.4954 428.3495 75.5929 427.8489 75.615L427.3106 75.6411 427.2097 76.7404 436.0173 77.5553 436.1145 76.4563 435.2695 76.2656C434.8361 76.1647 434.5367 76.0226 434.3649 75.8322 434.2005 75.6411 434.1257 75.3948 434.1555 75.0917 434.1779 74.8412 434.3275 74.4188 434.5892 73.8207L437.8045 66.7888C438.2229 65.8692 438.5594 65.1178 438.7986 64.527L438.8287 64.5307 440.9819 73.944 440.3239 75.2562C440.0997 75.7125 439.8378 76.034 439.5464 76.2282 439.2621 76.4226 438.8658 76.5386 438.3575 76.576L437.8045 76.6131 437.707 77.7124 446.5145 78.5273 446.6117 77.4283 445.767 77.2486C445.3333 77.1591 445.0416 77.0207 444.8846 76.8373 444.7276 76.6545 444.6604 76.4039 444.6904 76.0935 444.7202 75.7233 444.8696 75.2638 445.1386 74.7105L448.4211 67.7721C448.8548 66.8636 449.1913 66.1085 449.4231 65.5101L449.4453 65.5138 451.2472 73.8618C451.4794 74.946 451.5687 75.7721 451.5092 76.3441 451.4865 76.5873 451.4343 76.7962 451.3371 76.9683 451.2472 77.1443 451.0681 77.2937 450.7914 77.417 450.5148 77.5403 450.1256 77.6115 449.61 77.6302L449.1388 77.6639 449.0342 78.7629 455.8232 79.3908ZM417.6581 58.9757 402.7496 59.6597 402.7983 60.7663 403.7477 60.8372C404.1663 60.8709 404.4543 60.9942 404.6187 61.215 404.7831 61.4316 404.873 61.7868 404.8954 62.2803L405.4785 74.9494C405.5012 75.443 405.4411 75.8095 405.2993 76.0487 405.1573 76.288 404.8804 76.4413 404.4654 76.5011L403.5271 76.6468 403.5796 77.7535 418.286 77.0805 418.002 70.8786 416.8695 70.9308 416.4542 73.0431C416.3088 73.7796 416.1214 74.3553 415.8899 74.7666 415.658 75.174 415.3218 75.4804 414.8844 75.6785 414.4467 75.8767 413.8413 75.9963 413.0711 76.03L411.8338 76.0861 409.6057 76.1907 409.2993 69.5401 411.2617 69.4505C411.789 69.4281 412.1889 69.4431 412.4693 69.4916 412.7496 69.5441 412.9739 69.6674 413.1422 69.8618 413.3143 70.06 413.4637 70.3664 413.5946 70.7851L413.8637 71.6675 414.9967 71.6151 414.7274 65.6821 413.591 65.7343 413.4039 66.6244C413.303 67.0618 413.1797 67.3832 413.0263 67.5927 412.8732 67.7982 412.6637 67.9402 412.3945 68.0148 412.1254 68.0933 411.7292 68.142 411.2022 68.1647L409.2432 68.254 408.8957 60.6657 411.097 60.5645 412.2561 60.512C413.045 60.4746 413.6769 60.5605 414.1553 60.7626 414.6338 60.9681 415.0264 61.3157 415.3329 61.8055 415.6396 62.2993 415.9199 63.002 416.1776 63.9176L416.802 66.1723 417.9872 66.1198ZM393.9009 65.7085C394.3159 66.7774 394.6187 68.0749 394.8168 69.5962 395.011 71.1102 395.0521 72.4411 394.9288 73.5851 394.8092 74.7292 394.4015 75.7009 393.7102 76.4972 393.0185 77.2897 391.9496 77.7832 390.4988 77.97L389.7811 78.0636 388.3833 78.2467 386.3866 62.8634 387.7739 62.6842 388.5063 62.5907C389.9531 62.4039 391.1119 62.6057 391.9793 63.2038 392.8501 63.8019 393.4896 64.6356 393.9009 65.7085ZM398.6113 73.8281C399.2017 72.3739 399.3814 70.7777 399.1569 69.0358 398.9327 67.2936 398.3457 65.7944 397.4074 64.5344 396.4654 63.2747 395.2318 62.3588 393.7065 61.7831 392.1812 61.2037 390.4614 61.043 388.5437 61.2899L380.1923 62.3738 380.3343 63.4691 381.28 63.4618C381.6989 63.4578 382.002 63.559 382.1811 63.7645 382.3605 63.9666 382.4838 64.3102 382.5476 64.8L384.1736 77.3535C384.2371 77.8433 384.2073 78.2093 384.0877 78.4638 383.9644 78.7144 383.6991 78.8862 383.2951 78.9797L382.3716 79.2037 382.5139 80.303 390.869 79.219C392.7869 78.9684 394.4092 78.374 395.7364 77.4281 397.0636 76.4787 398.0205 75.2825 398.6113 73.8281ZM369.7549 76.3815 369.3546 78.8786 365.1007 72.5647 370.4873 71.3458ZM376.5249 63.0541 368.3789 64.8972 368.6219 65.9738 369.411 65.8879C370.3343 65.791 370.8689 66.06 371.0106 66.6955 371.0744 66.9759 371.082 67.3087 371.0296 67.6936L370.7082 69.9026 364.2931 71.3534 363.2539 69.8057C363.0334 69.4766 362.8763 69.1177 362.7904 68.7404 362.7082 68.3702 362.8089 68.0338 363.0929 67.7424 363.3772 67.4467 363.7922 67.2075 364.3418 67.0207L365.0295 66.7888 364.7866 65.7085 358.2743 67.1851 358.5175 68.262 358.9472 68.269C359.3472 68.2654 359.6873 68.3215 359.9751 68.4337 360.2594 68.5457 360.536 68.7328 360.7977 68.9907 361.0593 69.245 361.351 69.6076 361.6724 70.075L369.0408 80.8115 368.7117 82.7067C369.7138 82.5684 370.5137 82.5086 371.1155 82.5313 371.7139 82.5497 372.2406 82.677 372.693 82.9123L372.7417 82.9015 375.052 66.486C375.1532 65.7833 375.3026 65.2785 375.5007 64.9681 375.7025 64.6617 375.9905 64.4372 376.3678 64.2991L376.7717 64.1307ZM354.1547 69.5591 354.9844 69.1588 354.6255 68.1123 346.962 70.7142 347.3169 71.761 348.222 71.5776C348.6404 71.4881 348.9582 71.5218 349.1751 71.6749 349.3919 71.8282 349.5827 72.146 349.7468 72.6282L353.8817 84.7928 353.7958 84.8228 343.8218 71.7831 342.2818 72.3067 341.9938 88.8341 341.9152 88.8452 338.3524 78.2056C338.1469 77.5777 338.0346 77.0581 338.0162 76.6545 337.9935 76.2506 338.0834 75.8917 338.2815 75.5776 338.4757 75.2638 338.8195 74.9682 339.3057 74.6878L340.0758 74.2243 339.717 73.1775 333.2083 75.3908 333.5635 76.4374 334.1245 76.3815C334.6254 76.3254 335.0327 76.3702 335.3542 76.5048 335.6719 76.6431 335.9452 76.8898 336.1731 77.2413 336.401 77.5925 336.6255 78.0973 336.8497 78.7552L340.3675 89.1031C340.5059 89.5144 340.5209 89.8659 340.4197 90.1687 340.3151 90.4677 340.0685 90.7217 339.6872 90.9312L338.8683 91.3723 339.2235 92.4191 345.9864 90.1199 346.1655 77.3759 353.8329 87.4545 360.4388 85.2077 360.095 84.1572 359.2012 84.3403C358.8911 84.4004 358.6442 84.4112 358.4611 84.3701 358.2782 84.3293 358.1246 84.2244 358.005 84.0563 357.8854 83.8882 357.7657 83.6263 357.6461 83.2711L353.5826 71.3123C353.418 70.8299 353.3769 70.4636 353.4554 70.213 353.5376 69.9627 353.7697 69.7459 354.1547 69.5591ZM326.7374 83.8134C327.4551 84.7108 328.1394 85.8583 328.79 87.2527 329.4326 88.6433 329.8703 89.9031 330.1021 91.0321 330.33 92.1611 330.2365 93.2114 329.8141 94.1837 329.3918 95.152 328.5167 95.9445 327.1935 96.5611L326.5319 96.8678 325.2495 97.4622 318.6964 83.3647 319.9711 82.7739 320.6401 82.4601C321.9673 81.8467 323.1334 81.6936 324.1468 82.0001 325.1563 82.3105 326.0197 82.9125 326.7374 83.8134ZM333.6908 90.1497C333.8181 88.5832 333.5074 87.0021 332.7676 85.4059 332.0232 83.8094 331.014 82.5537 329.7356 81.6338 328.4532 80.7143 326.9991 80.2094 325.3652 80.1198 323.7355 80.0263 322.0421 80.3928 320.2849 81.2075L312.6251 84.7667 313.0923 85.7721 313.9971 85.4768C314.3974 85.35 314.7146 85.3534 314.9467 85.4918 315.1823 85.6338 315.4025 85.9255 315.612 86.3742L320.9579 97.8806C321.1637 98.3293 321.2495 98.6922 321.2084 98.9685 321.1673 99.2452 320.9692 99.4884 320.6066 99.7053L319.7951 100.1948 320.2625 101.2005 327.9186 97.6414C329.6755 96.8267 331.0478 95.7648 332.0308 94.4603 333.0142 93.1555 333.5675 91.7201 333.6908 90.1497ZM317.6609 101.1818 317.3241 101.3349C316.872 101.5407 316.4834 101.6306 316.1506 101.6079 315.8178 101.5855 315.4813 101.4211 315.1409 101.107 314.801 100.7969 314.4231 100.2807 314.0011 99.5632L307.0772 87.7235 304.7596 89.0804 303.967 107.4549 303.9446 107.466 298.3071 97.7349C297.8025 96.8528 297.6454 96.0902 297.8436 95.451 298.038 94.8078 298.5279 94.1947 299.3128 93.6079L299.6082 93.3761 299.0475 92.4231 292.7781 96.0902 293.3351 97.0472 293.6642 96.9276C294.1089 96.7482 294.5055 96.6696 294.8567 96.6957 295.2043 96.7221 295.5444 96.8788 295.8772 97.1668 296.2063 97.4546 296.5501 97.9033 296.905 98.5127L302.1052 107.3948C302.4156 107.9297 302.6137 108.3594 302.6959 108.6846 302.7781 109.01 302.7597 109.2943 302.6401 109.5335 302.5205 109.7762 302.2889 110.0341 301.9371 110.3071L301.47 110.6697 302.0306 111.6266 308.1127 108.0641 308.7933 93.7837 312.569 100.2399C312.9877 100.9576 313.242 101.5628 313.3242 102.0529 313.4027 102.5464 313.3389 102.9762 313.126 103.3427 312.9129 103.7089 312.5466 104.0641 312.0344 104.4156L311.5894 104.7331 312.154 105.7017 318.2253 102.1465ZM288.9014 112.8903 289.4919 115.3576 283.1219 111.1445 287.6454 107.9444ZM290.0492 97.9367 283.208 102.7783 283.8509 103.6828 284.5463 103.3016C285.3649 102.8565 285.9633 102.9016 286.3406 103.4323 286.509 103.6675 286.6436 103.9745 286.7406 104.3518L287.2939 106.5203 281.9066 110.3332 280.3482 109.2977C280.0154 109.0772 279.735 108.8079 279.5108 108.4901 279.29 108.176 279.2526 107.8285 279.4059 107.4472 279.5553 107.066 279.847 106.681 280.2844 106.2995L280.834 105.817 280.1951 104.9125 274.7256 108.7855 275.3646 109.69 275.7685 109.5293C276.1347 109.3725 276.4752 109.294 276.7816 109.2864 277.092 109.2827 277.4171 109.3501 277.7576 109.4882 278.1014 109.6228 278.5088 109.8471 278.9872 110.154L289.9406 117.2716 290.3706 119.1557C291.2414 118.6398 291.9631 118.2773 292.5238 118.0678 293.0885 117.8549 293.6231 117.7727 294.1353 117.8175L294.1764 117.7875 290.0041 101.6827C289.8286 100.9947 289.7725 100.4717 289.84 100.1089 289.9035 99.7424 290.0863 99.4249 290.382 99.1553L290.6921 98.8415Z" fill="#ffd87d"/>
<path transform="matrix(1,0,0,-1,0,595.2756)" d="M236.7587 156.4197C235.5327 156.4197 234.3251 156.9807 233.5399 158.0346 203.2741 198.6744 187.274 246.9481 187.274 297.6437 187.274 304.7655 187.6068 311.8796 188.257 318.7919 188.4665 320.9902 190.3209 322.5864 192.6275 322.4066 194.8292 322.1977 196.448 320.2427 196.2422 318.0368 195.6144 311.3751 195.2966 304.5149 195.2966 297.6437 195.2966 248.6863 210.7437 202.0689 239.97 162.8274 241.2933 161.0518 240.927 158.5395 239.1514 157.2163 238.4297 156.6814 237.5923 156.4197 236.7587 156.4197ZM604.7668 156.4197C603.9295 156.4197 603.0921 156.678 602.3744 157.2163 600.5951 158.5395 600.2286 161.0518 601.5521 162.8274 630.7787 202.0689 646.2255 248.69 646.2255 297.6437 646.2255 304.4889 645.9041 311.3527 645.2833 318.0404 645.0814 320.2464 646.6966 322.2014 648.902 322.4066 651.0702 322.594 653.0666 320.9975 653.2685 318.7882 653.9117 311.8499 654.2405 304.7355 654.2405 297.6437 654.2405 246.9515 638.248 198.6744 607.9822 158.0346 607.197 156.9807 605.9857 156.4197 604.7668 156.4197" fill="#ffd87d"/>
<path transform="matrix(1,0,0,-1,0,595.2756)" d="M347.1426 305.5093C347.1041 305.5119 347.0658 305.5156 347.0275 305.5209 346.7018 305.5663 346.3795 305.6922 346.0842 305.8328 345.6 306.0632 345.1479 306.3696 344.6867 306.6361 344.1929 306.9207 343.7056 307.2172 343.2254 307.5242 342.4955 307.9905 341.7814 308.4812 341.0833 308.9942 340.2686 309.5938 339.4763 310.2236 338.7095 310.8832 337.8532 311.6205 337.0283 312.3944 336.2406 313.2048 335.3845 314.0853 334.5729 315.0085 333.8127 315.9729 333.0006 317.0032 332.2474 318.0813 331.5634 319.2012 330.8372 320.3909 330.1889 321.628 329.6288 322.9044 329.0326 324.2628 328.5363 325.6645 328.1457 327.0957 327.7828 328.4269 327.5107 329.7827 327.3293 331.1504 325.4049 345.6544 334.3133 355.8776 335.6569 357.368 338.9213 360.4428 343.3028 363.882 348.9426 366.787 363.854 374.4675 378.2835 373.6315 385.0163 372.7692 389.9767 371.7094 395.2962 370.3686 400.8963 368.6647 407.1382 366.7654 412.8477 364.682 417.998 362.5685 423.1843 360.4037 429.2328 358.3783 436.0878 356.9329 456.9792 352.5284 474.9279 355.7146 486.0065 358.78 477.8019 355.3089 465.2838 351.2597 449.6964 350.8302 441.4677 350.6034 434.2368 351.4371 428.3246 352.569 425.59 353.2311 421.3826 354.2247 416.2224 355.3342 399.145 359.0065 390.4206 360.8337 381.3106 360.3878 376.6544 360.1602 369.6389 359.3191 361.1509 356.252 358.9654 355.2664 355.2151 353.209 352.0902 349.2094 346.7426 342.3645 346.7429 334.3317 347.3578 330.2096 347.9975 325.9216 349.8982 321.8729 352.7691 318.3542 353.5954 317.3417 354.1776 316.1384 354.4274 314.8534 354.6609 313.6507 354.6023 312.3975 354.2695 311.2189 353.9404 310.0541 353.3462 308.9659 352.5389 308.0633 351.7101 307.1361 350.6604 306.4161 349.4945 305.9833 349.0209 305.807 348.5307 305.6803 348.0327 305.5966 347.7492 305.549 347.4405 305.4903 347.1426 305.5093ZM532.4326 209.4094C535.602 210.0796 535.8336 207.0244 535.8336 207.0244 532.3921 184.1579 524.5095 160.7661 513.4825 156.1589 510.2643 152.788 505.6481 150.1569 499.5082 148.8583 486.4674 146.101 475.8361 154.724 472.6559 159.7825 466.9588 151.0101 459.4561 144.5287 449.949 142.5186 434.6989 139.2942 413.7094 141.6841 407.7213 170.0067 401.3566 200.111 420.6129 236.253 434.4766 239.1843 447.3505 241.9061 461.3389 233.4838 463.1394 224.9683 465.317 214.6683 458.3849 213.2028 456.8006 212.8677 455.4145 212.5746 450.3674 212.9564 449.949 214.937 449.2372 218.3037 452.1254 230.0882 446.1837 228.8319 440.242 227.5756 425.3763 189.2577 430.024 167.2736 430.8197 163.5109 435.42 149.5845 451.2643 152.9348 462.7514 155.3635 474.0046 175.5369 477.9604 194.9956 477.9604 194.9956 478.9582 198.1032 482.1267 198.7733 485.2959 199.4434 485.5277 196.3882 485.5277 196.3882 483.6512 184.398 479.9511 172.1254 474.1869 162.2665 476.6522 160.6734 483.4134 156.8353 490.2729 158.2858 498.7894 160.086 502.7715 173.5495 499.7979 187.6122 497.5367 198.3076 486.1463 215.9694 483.5081 228.4466 481.4983 237.9538 490.6794 255.2054 495.4323 256.2106 499.5916 257.0896 508.9297 249.1325 510.0608 243.7852 510.9817 239.4281 498.7811 229.6071 500.7492 220.2987 502.8429 210.3959 517.0751 197.8858 521.0113 179.2687L521.0529 179.0711C523.6328 186.4443 526.189 195.8814 528.2654 205.6317 528.2654 205.6317 529.0656 208.6977 532.4326 209.4094ZM253.0987 298.4975C254.0889 298.707 255.2888 297.9264 255.7077 295.9447 258.4293 283.0723 277.4642 274.2678 295.6853 278.1204 353.7156 290.3899 400.5442 332.1541 440.7497 340.6547 477.7863 348.4851 493.1133 322.9656 497.8871 300.3871 498.4316 297.813 497.8063 296.8537 496.4202 296.5609 491.8652 295.5977 493.8063 317.7329 466.0778 311.8706 437.1619 305.7568 416.2969 296.7936 397.1007 287.7681 396.6826 264.2992 378.6585 141.1016 387.2543 135.6775 390.613 133.4908 390.9713 129.8412 386.0198 128.7947 378.4938 127.2033 364.2653 135.7821 360.6216 153.0133 357.8581 166.0847 368.9719 238.7837 369.4938 274.4824 354.2046 267.5262 337.9561 261.1942 317.5569 256.881 277.5492 248.4221 255.2443 276.605 251.6428 293.6375 251.015 296.608 251.9104 298.2464 253.0987 298.4975ZM392.963 454.225C392.9462 454.2866 388.0806 472.1451 373.6165 474.6864 373.6165 474.6864 363.5963 476.625 361.4913 467.8461 361.4913 467.8461 360.6919 463.9419 363.0637 461.0795 365.4351 458.2176 363.3627 460.8439 363.3619 460.8445 363.5532 460.6024 363.8092 460.4105 363.9966 460.1557 364.477 459.5043 364.7976 458.7423 364.9742 457.9546 365.2622 456.6713 365.1715 455.3291 364.8793 454.0555 364.678 453.1779 364.3809 452.3241 364.0246 451.4981 363.8021 450.9819 363.5838 450.4635 363.3194 449.9668 363.183 449.7111 363.0387 449.4453 362.8449 449.2276 362.6362 448.9937 362.4795 449.0133 362.1733 449.0634 361.3802 449.1933 360.6766 449.574 360.0184 450.0193 359.0736 450.6582 358.0917 451.3008 357.2711 452.0982 356.9737 452.3873 356.6928 452.6938 356.4343 453.0183 355.7917 453.8273 355.4476 454.7721 355.0774 455.72 354.867 456.2589 354.6904 456.8117 354.5393 457.3701 354.3094 458.2196 354.1405 459.0859 354.0345 459.9592 353.9027 461.0432 353.8689 462.1394 353.9446 463.2287 354.0319 464.4825 354.2655 465.726 354.6519 466.922 355.0935 468.29 355.7341 469.5897 356.538 470.7811 357.3584 471.9966 358.3437 473.095 359.4351 474.0732 359.4351 474.0732 369.3869 481.8713 380.7403 475.2445 380.7403 475.2445 390.7341 470.0083 395.1791 455.864L395.2545 455.5395 395.2494 455.5363C396.2134 455.9854 397.2385 456.3425 398.3165 456.5928 406.6526 458.53 414.9694 453.3911 416.8925 445.1148 418.8158 436.8385 413.6168 428.559 405.2809 426.6218 396.9445 424.6846 388.6277 429.8236 386.7046 438.0999 385.238 444.4112 387.9136 450.724 392.963 454.225ZM380.2748 403.77C380.3445 403.7635 380.414 403.7564 380.4837 403.7491 383.4592 403.4381 386.3375 404.9603 387.5391 407.7006 388.9638 410.9474 392.082 414.4348 398.8996 414.6704 398.8996 414.6704 427.0198 411.6957 426.7443 432.2948 426.7443 432.2948 428.0893 449.0651 411.698 455.862 411.698 455.862 426.8942 444.7644 421.094 431.1649 421.094 431.1649 416.6819 417.888 399.3058 422.6275 399.3058 422.6275 383.7438 426.8531 375.1376 414.3603 372.1768 410.0621 375.0795 404.2698 380.2748 403.77ZM445.6001 370.1316C447.7346 369.8476 450.6106 369.6837 454.2477 369.9371 455.3181 370.012 456.2702 370.641 456.7411 371.6048 460.6359 379.5769 475.8137 416.8131 429.7218 434.6935 429.7218 434.6935 470.6345 413.782 443.522 374.7376 442.2597 372.9195 443.4063 370.4238 445.6001 370.1316ZM353.914 372.9331C353.9903 372.9535 354.0671 372.973 354.1436 372.9926 356.7362 373.6559 358.8055 375.5557 359.6573 378.0924 361.9125 384.8108 368.4977 396.2472 386.5912 390.7811 386.5912 390.7811 400.3727 388.1319 423.4955 370.4644 423.4955 370.4644 442.7663 357.5704 459.341 361.7875 459.341 361.7875 436.3084 364.1156 416.643 381.8554 416.643 381.8554 387.3648 408.6984 363.2287 399.2502 363.2287 399.2502 351.1664 394.6357 345.3222 384.1075 342.0797 378.2665 347.4564 371.2192 353.914 372.9331" fill="#ffd87d"/>
</g>
<g inkscape:groupmode="layer" inkscape:label="Layer 1">
</g>
</svg>
